<?xml version="1.0" encoding="utf-8"?>
<!-- Generator: Adobe Illustrator 22.1.0, SVG Export Plug-In . SVG Version: 6.00 Build 0)  -->
<svg version="1.1" id="Layer_1" xmlns="http://www.w3.org/2000/svg" xmlns:xlink="http://www.w3.org/1999/xlink" x="0px" y="0px"
	 viewBox="0 0 512 512" style="enable-background:new 0 0 512 512;" xml:space="preserve">
<g>
	<path d="M472.7,200.2c-7.7-31-22.4-54.4-53.6-54.4h-40.3v47.6c0,37-31.3,68.1-67.1,68.1H204.5c-29.3,0-53.6,25.1-53.6,54.5v102.3
		c0,29.1,25.3,46.2,53.6,54.5c33.9,9.9,66.6,11.8,107.3,0c27-7.8,53.6-23.6,53.6-54.5v-40.9H258.2v-13.7h160.9
		c31.2,0,42.8-21.8,53.6-54.4C484,275.7,483.5,243.3,472.7,200.2L472.7,200.2z M318.5,404.6c11.1,0,20.2,9.1,20.2,20.4
		c0,11.4-9,20.5-20.2,20.5c-11,0-20.2-9.2-20.2-20.5C298.4,413.7,307.4,404.6,318.5,404.6z M199.5,248.1h107.3
		c29.8,0,53.6-24.6,53.6-54.5V91.2c0-29.1-24.5-50.9-53.6-55.8c-36-5.9-75-5.6-107.3,0.1c-45.4,8-53.6,24.8-53.6,55.8v40.9h107.4
		v13.7H105.6c-31.2,0-58.6,18.8-67.1,54.4c-9.8,40.9-10.2,66.4,0,109.1c7.6,31.7,25.8,54.4,57.1,54.4h36.9v-49
		C132.4,279.3,163.1,248.1,199.5,248.1L199.5,248.1z M192.8,104.8c-11.1,0-20.2-9.1-20.2-20.4c0.1-11.4,9-20.5,20.2-20.5
		c11,0,20.2,9.2,20.2,20.5S204,104.8,192.8,104.8z"/>
</g>
</svg>
